<mxfile host="app.diagrams.net" agent="Mozilla/5.0 (X11; Linux x86_64) AppleWebKit/537.36 (KHTML, like Gecko) Chrome/131.0.0.0 Safari/537.36" version="26.0.11">
  <diagram name="Page-1" id="7e0a89b8-554c-2b80-1dc8-d5c74ca68de4">
    <mxGraphModel dx="573" dy="352" grid="1" gridSize="10" guides="1" tooltips="1" connect="1" arrows="1" fold="1" page="1" pageScale="1" pageWidth="1100" pageHeight="850" background="none" math="0" shadow="0">
      <root>
        <mxCell id="0" />
        <mxCell id="1" parent="0" />
        <mxCell id="fRjFHOvY2SyDoRDMswof-2" value="" style="endArrow=none;html=1;rounded=0;fillColor=#f8cecc;strokeColor=#b85450;strokeWidth=3;" edge="1" parent="1">
          <mxGeometry width="50" height="50" relative="1" as="geometry">
            <mxPoint x="200" y="830" as="sourcePoint" />
            <mxPoint x="200" y="80" as="targetPoint" />
          </mxGeometry>
        </mxCell>
        <mxCell id="fRjFHOvY2SyDoRDMswof-3" value="&lt;font style=&quot;font-size: 17px;&quot;&gt;Vbat&lt;/font&gt;" style="edgeLabel;html=1;align=center;verticalAlign=middle;resizable=0;points=[];" vertex="1" connectable="0" parent="fRjFHOvY2SyDoRDMswof-2">
          <mxGeometry x="0.8688" relative="1" as="geometry">
            <mxPoint y="-42" as="offset" />
          </mxGeometry>
        </mxCell>
        <mxCell id="fRjFHOvY2SyDoRDMswof-4" value="" style="endArrow=none;html=1;rounded=0;fillColor=#f8cecc;strokeColor=#CC0000;strokeWidth=3;" edge="1" parent="1">
          <mxGeometry width="50" height="50" relative="1" as="geometry">
            <mxPoint x="280" y="830" as="sourcePoint" />
            <mxPoint x="280" y="80" as="targetPoint" />
          </mxGeometry>
        </mxCell>
        <mxCell id="fRjFHOvY2SyDoRDMswof-5" value="&lt;font style=&quot;font-size: 17px;&quot;&gt;3V3&lt;/font&gt;" style="edgeLabel;html=1;align=center;verticalAlign=middle;resizable=0;points=[];" vertex="1" connectable="0" parent="fRjFHOvY2SyDoRDMswof-4">
          <mxGeometry x="0.8688" relative="1" as="geometry">
            <mxPoint y="-42" as="offset" />
          </mxGeometry>
        </mxCell>
        <mxCell id="fRjFHOvY2SyDoRDMswof-11" style="edgeStyle=elbowEdgeStyle;rounded=0;orthogonalLoop=1;jettySize=auto;html=1;exitX=0;exitY=0.5;exitDx=0;exitDy=0;exitPerimeter=0;jumpStyle=arc;jumpSize=9;endArrow=oval;startFill=0;endFill=1;" edge="1" parent="1" source="fRjFHOvY2SyDoRDMswof-10">
          <mxGeometry relative="1" as="geometry">
            <mxPoint x="200" y="699.49" as="targetPoint" />
            <mxPoint x="540" y="699.49" as="sourcePoint" />
            <Array as="points">
              <mxPoint x="200" y="700" />
            </Array>
          </mxGeometry>
        </mxCell>
        <mxCell id="fRjFHOvY2SyDoRDMswof-13" style="edgeStyle=elbowEdgeStyle;shape=connector;rounded=0;jumpStyle=arc;jumpSize=9;orthogonalLoop=1;jettySize=auto;html=1;exitX=1;exitY=0.5;exitDx=0;exitDy=0;exitPerimeter=0;strokeColor=default;align=center;verticalAlign=middle;fontFamily=Helvetica;fontSize=11;fontColor=default;labelBackgroundColor=default;startFill=0;endArrow=none;" edge="1" parent="1" source="fRjFHOvY2SyDoRDMswof-10" target="fRjFHOvY2SyDoRDMswof-12">
          <mxGeometry relative="1" as="geometry" />
        </mxCell>
        <mxCell id="fRjFHOvY2SyDoRDMswof-10" value="Li-Ion 18650&lt;div&gt;(in battery holder)&lt;/div&gt;" style="verticalLabelPosition=bottom;shadow=0;dashed=0;align=center;fillColor=strokeColor;html=1;verticalAlign=top;strokeWidth=1;shape=mxgraph.electrical.miscellaneous.monocell_battery;" vertex="1" parent="1">
          <mxGeometry x="470" y="670" width="100" height="60" as="geometry" />
        </mxCell>
        <mxCell id="fRjFHOvY2SyDoRDMswof-12" value="" style="pointerEvents=1;verticalLabelPosition=bottom;shadow=0;dashed=0;align=center;html=1;verticalAlign=top;shape=mxgraph.electrical.signal_sources.protective_earth;fontFamily=Helvetica;fontSize=11;fontColor=default;labelBackgroundColor=default;direction=north;" vertex="1" parent="1">
          <mxGeometry x="640" y="687.5" width="20" height="25" as="geometry" />
        </mxCell>
        <mxCell id="fRjFHOvY2SyDoRDMswof-15" style="edgeStyle=elbowEdgeStyle;shape=connector;rounded=0;jumpStyle=arc;jumpSize=9;orthogonalLoop=1;jettySize=auto;html=1;exitX=1;exitY=0.5;exitDx=0;exitDy=0;strokeColor=default;align=center;verticalAlign=middle;fontFamily=Helvetica;fontSize=11;fontColor=default;labelBackgroundColor=default;startFill=0;endArrow=none;entryX=0.498;entryY=0.096;entryDx=0;entryDy=0;entryPerimeter=0;" edge="1" parent="1" source="fRjFHOvY2SyDoRDMswof-14" target="fRjFHOvY2SyDoRDMswof-16">
          <mxGeometry relative="1" as="geometry">
            <mxPoint x="660" y="325.2380952380952" as="targetPoint" />
          </mxGeometry>
        </mxCell>
        <mxCell id="fRjFHOvY2SyDoRDMswof-16" value="" style="pointerEvents=1;verticalLabelPosition=bottom;shadow=0;dashed=0;align=center;html=1;verticalAlign=top;shape=mxgraph.electrical.signal_sources.protective_earth;fontFamily=Helvetica;fontSize=11;fontColor=default;labelBackgroundColor=default;direction=north;" vertex="1" parent="1">
          <mxGeometry x="690" y="222.5" width="20" height="25" as="geometry" />
        </mxCell>
        <mxCell id="fRjFHOvY2SyDoRDMswof-32" style="edgeStyle=elbowEdgeStyle;shape=connector;rounded=0;jumpStyle=arc;jumpSize=9;orthogonalLoop=1;jettySize=auto;html=1;strokeColor=default;align=center;verticalAlign=middle;fontFamily=Helvetica;fontSize=11;fontColor=default;labelBackgroundColor=default;startFill=0;endArrow=oval;endFill=1;" edge="1" parent="1" source="fRjFHOvY2SyDoRDMswof-31">
          <mxGeometry relative="1" as="geometry">
            <mxPoint x="280" y="375" as="targetPoint" />
          </mxGeometry>
        </mxCell>
        <mxCell id="fRjFHOvY2SyDoRDMswof-40" value="" style="group" vertex="1" connectable="0" parent="1">
          <mxGeometry x="310" y="520" width="120" height="80" as="geometry" />
        </mxCell>
        <mxCell id="fRjFHOvY2SyDoRDMswof-34" value="Rotary&lt;br&gt;potent.&lt;br&gt;&amp;nbsp;w/ switch" style="rounded=0;whiteSpace=wrap;html=1;fontFamily=Helvetica;fontSize=11;fontColor=default;labelBackgroundColor=default;" vertex="1" parent="fRjFHOvY2SyDoRDMswof-40">
          <mxGeometry y="10" width="109.09090909090908" height="60" as="geometry" />
        </mxCell>
        <mxCell id="fRjFHOvY2SyDoRDMswof-36" value="" style="pointerEvents=1;verticalLabelPosition=bottom;shadow=0;dashed=0;align=center;html=1;verticalAlign=top;shape=mxgraph.electrical.resistors.potentiometer_1;fontFamily=Helvetica;fontSize=11;fontColor=default;labelBackgroundColor=default;direction=north;" vertex="1" parent="fRjFHOvY2SyDoRDMswof-40">
          <mxGeometry x="87.27272727272727" width="32.72727272727273" height="80" as="geometry" />
        </mxCell>
        <mxCell id="fRjFHOvY2SyDoRDMswof-42" style="edgeStyle=elbowEdgeStyle;shape=connector;rounded=0;jumpStyle=arc;jumpSize=9;orthogonalLoop=1;jettySize=auto;html=1;strokeColor=default;align=center;verticalAlign=middle;fontFamily=Helvetica;fontSize=11;fontColor=default;labelBackgroundColor=default;startFill=0;endArrow=oval;exitX=0;exitY=0.8;exitDx=0;exitDy=0;startArrow=none;endFill=1;" edge="1" parent="fRjFHOvY2SyDoRDMswof-40" source="fRjFHOvY2SyDoRDMswof-38">
          <mxGeometry relative="1" as="geometry">
            <mxPoint x="-98.18181818181817" y="110" as="targetPoint" />
            <Array as="points">
              <mxPoint x="17" y="96" />
            </Array>
          </mxGeometry>
        </mxCell>
        <mxCell id="fRjFHOvY2SyDoRDMswof-38" value="" style="html=1;shape=mxgraph.electrical.electro-mechanical.singleSwitch;aspect=fixed;elSwitchState=off;fontFamily=Helvetica;fontSize=11;fontColor=default;labelBackgroundColor=default;direction=north;" vertex="1" parent="fRjFHOvY2SyDoRDMswof-40">
          <mxGeometry y="5.684341886080802e-14" width="21.33" height="80" as="geometry" />
        </mxCell>
        <mxCell id="fRjFHOvY2SyDoRDMswof-43" style="edgeStyle=elbowEdgeStyle;shape=connector;rounded=0;jumpStyle=arc;jumpSize=9;orthogonalLoop=1;jettySize=auto;html=1;exitX=1;exitY=0.8;exitDx=0;exitDy=0;entryX=0;entryY=0.5;entryDx=0;entryDy=0;strokeColor=default;align=center;verticalAlign=middle;fontFamily=Helvetica;fontSize=11;fontColor=default;labelBackgroundColor=default;startFill=0;endArrow=none;" edge="1" parent="1" source="fRjFHOvY2SyDoRDMswof-38" target="fRjFHOvY2SyDoRDMswof-29">
          <mxGeometry relative="1" as="geometry">
            <Array as="points">
              <mxPoint x="328" y="422" />
            </Array>
          </mxGeometry>
        </mxCell>
        <mxCell id="fRjFHOvY2SyDoRDMswof-47" value="" style="pointerEvents=1;verticalLabelPosition=bottom;shadow=0;dashed=0;align=center;html=1;verticalAlign=top;shape=mxgraph.electrical.signal_sources.protective_earth;fontFamily=Helvetica;fontSize=11;fontColor=default;labelBackgroundColor=default;" vertex="1" parent="1">
          <mxGeometry x="393" y="660" width="25" height="20" as="geometry" />
        </mxCell>
        <mxCell id="fRjFHOvY2SyDoRDMswof-52" style="edgeStyle=elbowEdgeStyle;shape=connector;rounded=0;jumpStyle=arc;jumpSize=9;orthogonalLoop=1;jettySize=auto;html=1;strokeColor=default;align=center;verticalAlign=middle;fontFamily=Helvetica;fontSize=11;fontColor=default;labelBackgroundColor=default;startFill=0;endArrow=oval;endFill=1;exitX=0;exitY=0.5;exitDx=0;exitDy=0;exitPerimeter=0;" edge="1" parent="1" source="fRjFHOvY2SyDoRDMswof-57">
          <mxGeometry relative="1" as="geometry">
            <mxPoint x="280" y="490" as="targetPoint" />
            <mxPoint x="300" y="490" as="sourcePoint" />
          </mxGeometry>
        </mxCell>
        <mxCell id="fRjFHOvY2SyDoRDMswof-54" style="edgeStyle=elbowEdgeStyle;shape=connector;rounded=0;jumpStyle=arc;jumpSize=9;orthogonalLoop=1;jettySize=auto;html=1;entryX=1;entryY=0.25;entryDx=0;entryDy=0;entryPerimeter=0;strokeColor=default;align=center;verticalAlign=middle;fontFamily=Helvetica;fontSize=11;fontColor=default;labelBackgroundColor=default;startFill=0;endArrow=none;exitX=1;exitY=0.5;exitDx=0;exitDy=0;exitPerimeter=0;" edge="1" parent="1" source="fRjFHOvY2SyDoRDMswof-57" target="fRjFHOvY2SyDoRDMswof-36">
          <mxGeometry relative="1" as="geometry">
            <mxPoint x="430" y="490" as="sourcePoint" />
            <Array as="points">
              <mxPoint x="405" y="511" />
            </Array>
          </mxGeometry>
        </mxCell>
        <mxCell id="fRjFHOvY2SyDoRDMswof-57" value="Ra&lt;sub&gt;1&lt;/sub&gt;" style="pointerEvents=1;verticalLabelPosition=bottom;shadow=0;dashed=0;align=center;html=1;verticalAlign=top;shape=mxgraph.electrical.resistors.resistor_1;fontFamily=Helvetica;fontSize=11;fontColor=default;labelBackgroundColor=default;" vertex="1" parent="1">
          <mxGeometry x="340" y="480" width="60" height="20" as="geometry" />
        </mxCell>
        <mxCell id="fRjFHOvY2SyDoRDMswof-58" value="Ra&lt;font size=&quot;1&quot;&gt;&lt;sub&gt;2&lt;/sub&gt;&lt;/font&gt;" style="pointerEvents=1;verticalLabelPosition=bottom;shadow=0;dashed=0;align=center;html=1;verticalAlign=top;shape=mxgraph.electrical.resistors.resistor_1;fontFamily=Helvetica;fontSize=11;fontColor=default;labelBackgroundColor=default;direction=south;spacing=-42;spacingLeft=-43;" vertex="1" parent="1">
          <mxGeometry x="395.5" y="600" width="20" height="60" as="geometry" />
        </mxCell>
        <mxCell id="fRjFHOvY2SyDoRDMswof-60" value="Resistances are WIP where annotated by Rx and not concrete values" style="text;html=1;align=center;verticalAlign=middle;whiteSpace=wrap;rounded=0;fontFamily=Helvetica;fontSize=11;fontColor=default;labelBackgroundColor=default;strokeColor=default;" vertex="1" parent="1">
          <mxGeometry x="360" y="10" width="130" height="30" as="geometry" />
        </mxCell>
        <mxCell id="fRjFHOvY2SyDoRDMswof-66" value="Pin annotation example:&lt;br&gt;Pin name PM10, configured as DAC on pin 25" style="text;html=1;align=center;verticalAlign=middle;whiteSpace=wrap;rounded=0;fontFamily=Helvetica;fontSize=11;fontColor=default;labelBackgroundColor=default;strokeColor=default;" vertex="1" parent="1">
          <mxGeometry x="500" y="10" width="150" height="30" as="geometry" />
        </mxCell>
        <mxCell id="fRjFHOvY2SyDoRDMswof-68" value="PM10 | DAC25" style="text;html=1;align=center;verticalAlign=middle;whiteSpace=wrap;rounded=0;fontFamily=Helvetica;fontSize=11;fontColor=default;labelBackgroundColor=default;fillColor=none;strokeColor=default;dashed=1;dashPattern=1 1;" vertex="1" parent="1">
          <mxGeometry x="660" y="20" width="80" height="10" as="geometry" />
        </mxCell>
        <mxCell id="fRjFHOvY2SyDoRDMswof-73" value="PM10 and PM25 are analog voltmeter gauges (soviet M4231), with Sequin warm white LEDs installed inside" style="text;html=1;align=center;verticalAlign=middle;whiteSpace=wrap;rounded=0;fontFamily=Helvetica;fontSize=11;fontColor=default;labelBackgroundColor=default;" vertex="1" parent="1">
          <mxGeometry x="920" y="440" width="180" height="95" as="geometry" />
        </mxCell>
        <mxCell id="fRjFHOvY2SyDoRDMswof-78" value="" style="edgeStyle=elbowEdgeStyle;shape=connector;rounded=0;jumpStyle=arc;jumpSize=9;orthogonalLoop=1;jettySize=auto;html=1;strokeColor=default;align=center;verticalAlign=middle;fontFamily=Helvetica;fontSize=11;fontColor=default;labelBackgroundColor=default;startFill=0;endArrow=none;" edge="1" parent="1" source="fRjFHOvY2SyDoRDMswof-77" target="fRjFHOvY2SyDoRDMswof-74">
          <mxGeometry relative="1" as="geometry" />
        </mxCell>
        <mxCell id="fRjFHOvY2SyDoRDMswof-77" value="" style="pointerEvents=1;verticalLabelPosition=bottom;shadow=0;dashed=0;align=center;html=1;verticalAlign=top;shape=mxgraph.electrical.signal_sources.protective_earth;fontFamily=Helvetica;fontSize=11;fontColor=default;labelBackgroundColor=default;direction=north;" vertex="1" parent="1">
          <mxGeometry x="900" y="447.5" width="20" height="25" as="geometry" />
        </mxCell>
        <mxCell id="fRjFHOvY2SyDoRDMswof-80" value="" style="pointerEvents=1;verticalLabelPosition=bottom;shadow=0;dashed=0;align=center;html=1;verticalAlign=top;shape=mxgraph.electrical.signal_sources.protective_earth;fontFamily=Helvetica;fontSize=11;fontColor=default;labelBackgroundColor=default;direction=north;" vertex="1" parent="1">
          <mxGeometry x="900" y="495" width="20" height="25" as="geometry" />
        </mxCell>
        <mxCell id="fRjFHOvY2SyDoRDMswof-83" value="" style="group" vertex="1" connectable="0" parent="1">
          <mxGeometry x="790" y="440" width="80" height="80" as="geometry" />
        </mxCell>
        <mxCell id="fRjFHOvY2SyDoRDMswof-70" value="PM10" style="whiteSpace=wrap;html=1;aspect=fixed;fontFamily=Helvetica;fontSize=11;fontColor=default;labelBackgroundColor=default;spacing=-2;spacingBottom=-30;labelPosition=center;verticalLabelPosition=bottom;align=center;verticalAlign=top;" vertex="1" parent="fRjFHOvY2SyDoRDMswof-83">
          <mxGeometry width="80" height="80" as="geometry" />
        </mxCell>
        <mxCell id="fRjFHOvY2SyDoRDMswof-74" value="&lt;font style=&quot;font-size: 29px;&quot;&gt;V&lt;/font&gt;" style="verticalLabelPosition=middle;shadow=0;dashed=0;align=center;html=1;verticalAlign=middle;strokeWidth=1;shape=ellipse;aspect=fixed;fontSize=50;fontFamily=Helvetica;fontColor=default;labelBackgroundColor=none;spacing=0;spacingBottom=13;" vertex="1" parent="fRjFHOvY2SyDoRDMswof-83">
          <mxGeometry x="20" width="40" height="40" as="geometry" />
        </mxCell>
        <mxCell id="fRjFHOvY2SyDoRDMswof-79" value="" style="verticalLabelPosition=bottom;shadow=0;dashed=0;align=center;html=1;verticalAlign=top;shape=mxgraph.electrical.opto_electronics.led_2;pointerEvents=1;fontFamily=Helvetica;fontSize=11;fontColor=default;labelBackgroundColor=default;" vertex="1" parent="fRjFHOvY2SyDoRDMswof-83">
          <mxGeometry x="10" y="50" width="60" height="30" as="geometry" />
        </mxCell>
        <mxCell id="fRjFHOvY2SyDoRDMswof-84" value="" style="group" vertex="1" connectable="0" parent="1">
          <mxGeometry x="790" y="540" width="80" height="80" as="geometry" />
        </mxCell>
        <mxCell id="fRjFHOvY2SyDoRDMswof-85" value="PM25" style="whiteSpace=wrap;html=1;aspect=fixed;fontFamily=Helvetica;fontSize=11;fontColor=default;labelBackgroundColor=default;spacing=-2;spacingBottom=-30;labelPosition=center;verticalLabelPosition=bottom;align=center;verticalAlign=top;" vertex="1" parent="fRjFHOvY2SyDoRDMswof-84">
          <mxGeometry width="80" height="80" as="geometry" />
        </mxCell>
        <mxCell id="fRjFHOvY2SyDoRDMswof-86" value="&lt;font style=&quot;font-size: 29px;&quot;&gt;V&lt;/font&gt;" style="verticalLabelPosition=middle;shadow=0;dashed=0;align=center;html=1;verticalAlign=middle;strokeWidth=1;shape=ellipse;aspect=fixed;fontSize=50;fontFamily=Helvetica;fontColor=default;labelBackgroundColor=none;spacing=0;spacingBottom=13;" vertex="1" parent="fRjFHOvY2SyDoRDMswof-84">
          <mxGeometry x="20" width="40" height="40" as="geometry" />
        </mxCell>
        <mxCell id="fRjFHOvY2SyDoRDMswof-87" value="" style="verticalLabelPosition=bottom;shadow=0;dashed=0;align=center;html=1;verticalAlign=top;shape=mxgraph.electrical.opto_electronics.led_2;pointerEvents=1;fontFamily=Helvetica;fontSize=11;fontColor=default;labelBackgroundColor=default;" vertex="1" parent="fRjFHOvY2SyDoRDMswof-84">
          <mxGeometry x="10" y="50" width="60" height="30" as="geometry" />
        </mxCell>
        <mxCell id="fRjFHOvY2SyDoRDMswof-88" value="They indicate the PM10 and PM2.5 level, respectively, on an analog scale" style="text;html=1;align=center;verticalAlign=middle;whiteSpace=wrap;rounded=0;fontFamily=Helvetica;fontSize=11;fontColor=default;labelBackgroundColor=default;" vertex="1" parent="1">
          <mxGeometry x="920" y="525" width="180" height="95" as="geometry" />
        </mxCell>
        <mxCell id="fRjFHOvY2SyDoRDMswof-89" value="" style="pointerEvents=1;verticalLabelPosition=bottom;shadow=0;dashed=0;align=center;html=1;verticalAlign=top;shape=mxgraph.electrical.signal_sources.protective_earth;fontFamily=Helvetica;fontSize=11;fontColor=default;labelBackgroundColor=default;direction=north;" vertex="1" parent="1">
          <mxGeometry x="900" y="595" width="20" height="25" as="geometry" />
        </mxCell>
        <mxCell id="fRjFHOvY2SyDoRDMswof-90" value="" style="pointerEvents=1;verticalLabelPosition=bottom;shadow=0;dashed=0;align=center;html=1;verticalAlign=top;shape=mxgraph.electrical.signal_sources.protective_earth;fontFamily=Helvetica;fontSize=11;fontColor=default;labelBackgroundColor=default;direction=north;" vertex="1" parent="1">
          <mxGeometry x="900" y="547.5" width="20" height="25" as="geometry" />
        </mxCell>
        <mxCell id="fRjFHOvY2SyDoRDMswof-91" style="edgeStyle=elbowEdgeStyle;shape=connector;rounded=0;jumpStyle=arc;jumpSize=9;orthogonalLoop=1;jettySize=auto;html=1;entryX=0.5;entryY=0;entryDx=0;entryDy=0;entryPerimeter=0;strokeColor=default;align=center;verticalAlign=middle;fontFamily=Helvetica;fontSize=11;fontColor=default;labelBackgroundColor=default;startFill=0;endArrow=none;exitX=1;exitY=0.57;exitDx=0;exitDy=0;exitPerimeter=0;" edge="1" parent="1" source="fRjFHOvY2SyDoRDMswof-87" target="fRjFHOvY2SyDoRDMswof-89">
          <mxGeometry relative="1" as="geometry" />
        </mxCell>
        <mxCell id="fRjFHOvY2SyDoRDMswof-92" style="edgeStyle=elbowEdgeStyle;shape=connector;rounded=0;jumpStyle=arc;jumpSize=9;orthogonalLoop=1;jettySize=auto;html=1;entryX=0.5;entryY=0;entryDx=0;entryDy=0;entryPerimeter=0;strokeColor=default;align=center;verticalAlign=middle;fontFamily=Helvetica;fontSize=11;fontColor=default;labelBackgroundColor=default;startFill=0;endArrow=none;" edge="1" parent="1" source="fRjFHOvY2SyDoRDMswof-86" target="fRjFHOvY2SyDoRDMswof-90">
          <mxGeometry relative="1" as="geometry" />
        </mxCell>
        <mxCell id="fRjFHOvY2SyDoRDMswof-93" style="edgeStyle=elbowEdgeStyle;shape=connector;rounded=0;jumpStyle=arc;jumpSize=9;orthogonalLoop=1;jettySize=auto;html=1;strokeColor=default;align=center;verticalAlign=middle;fontFamily=Helvetica;fontSize=11;fontColor=default;labelBackgroundColor=default;startFill=0;endArrow=none;entryX=1;entryY=0.5;entryDx=0;entryDy=0;" edge="1" parent="1" source="fRjFHOvY2SyDoRDMswof-86" target="fRjFHOvY2SyDoRDMswof-20">
          <mxGeometry relative="1" as="geometry">
            <mxPoint x="780" y="560" as="targetPoint" />
            <Array as="points">
              <mxPoint x="710" y="460" />
            </Array>
          </mxGeometry>
        </mxCell>
        <mxCell id="fRjFHOvY2SyDoRDMswof-75" style="edgeStyle=elbowEdgeStyle;shape=connector;rounded=0;jumpStyle=arc;jumpSize=9;orthogonalLoop=1;jettySize=auto;html=1;strokeColor=default;align=center;verticalAlign=middle;fontFamily=Helvetica;fontSize=11;fontColor=default;labelBackgroundColor=default;startFill=0;endArrow=none;entryX=1;entryY=0.5;entryDx=0;entryDy=0;" edge="1" parent="1" source="fRjFHOvY2SyDoRDMswof-74" target="fRjFHOvY2SyDoRDMswof-19">
          <mxGeometry relative="1" as="geometry">
            <mxPoint x="780" y="460" as="targetPoint" />
          </mxGeometry>
        </mxCell>
        <mxCell id="fRjFHOvY2SyDoRDMswof-117" value="" style="group" vertex="1" connectable="0" parent="1">
          <mxGeometry x="340" y="230" width="310" height="220" as="geometry" />
        </mxCell>
        <mxCell id="fRjFHOvY2SyDoRDMswof-61" value="" style="group" vertex="1" connectable="0" parent="fRjFHOvY2SyDoRDMswof-117">
          <mxGeometry width="310" height="160" as="geometry" />
        </mxCell>
        <mxCell id="fRjFHOvY2SyDoRDMswof-9" value="&lt;font style=&quot;font-size: 32px;&quot;&gt;ESP 32&lt;/font&gt;" style="whiteSpace=wrap;html=1;aspect=fixed;" vertex="1" parent="fRjFHOvY2SyDoRDMswof-61">
          <mxGeometry x="70" width="160" height="160" as="geometry" />
        </mxCell>
        <mxCell id="fRjFHOvY2SyDoRDMswof-14" value="GND" style="text;html=1;align=center;verticalAlign=middle;whiteSpace=wrap;rounded=0;fontFamily=Helvetica;fontSize=11;fontColor=default;labelBackgroundColor=default;fillColor=none;strokeColor=default;dashed=1;dashPattern=1 1;" vertex="1" parent="fRjFHOvY2SyDoRDMswof-61">
          <mxGeometry x="230" width="50" height="10" as="geometry" />
        </mxCell>
        <mxCell id="fRjFHOvY2SyDoRDMswof-17" value="BUZZ | O35" style="text;html=1;align=center;verticalAlign=middle;whiteSpace=wrap;rounded=0;fontFamily=Helvetica;fontSize=11;fontColor=default;labelBackgroundColor=default;fillColor=none;strokeColor=default;dashed=1;dashPattern=1 1;" vertex="1" parent="fRjFHOvY2SyDoRDMswof-61">
          <mxGeometry x="230" y="30" width="70" height="10" as="geometry" />
        </mxCell>
        <mxCell id="fRjFHOvY2SyDoRDMswof-18" value="IQA-LED | O34" style="text;html=1;align=center;verticalAlign=middle;whiteSpace=wrap;rounded=0;fontFamily=Helvetica;fontSize=11;fontColor=default;labelBackgroundColor=default;fillColor=none;strokeColor=default;dashed=1;dashPattern=1 1;" vertex="1" parent="fRjFHOvY2SyDoRDMswof-61">
          <mxGeometry x="230" y="60" width="80" height="10" as="geometry" />
        </mxCell>
        <mxCell id="fRjFHOvY2SyDoRDMswof-19" value="PM10 | DAC25" style="text;html=1;align=center;verticalAlign=middle;whiteSpace=wrap;rounded=0;fontFamily=Helvetica;fontSize=11;fontColor=default;labelBackgroundColor=default;fillColor=none;strokeColor=default;dashed=1;dashPattern=1 1;" vertex="1" parent="fRjFHOvY2SyDoRDMswof-61">
          <mxGeometry x="230" y="90" width="80" height="10" as="geometry" />
        </mxCell>
        <mxCell id="fRjFHOvY2SyDoRDMswof-20" value="PM25 | DAC26" style="text;html=1;align=center;verticalAlign=middle;whiteSpace=wrap;rounded=0;fontFamily=Helvetica;fontSize=11;fontColor=default;labelBackgroundColor=default;fillColor=none;strokeColor=default;dashed=1;dashPattern=1 1;" vertex="1" parent="fRjFHOvY2SyDoRDMswof-61">
          <mxGeometry x="230" y="120" width="80" height="10" as="geometry" />
        </mxCell>
        <mxCell id="fRjFHOvY2SyDoRDMswof-21" value="LIGHT | O33" style="text;html=1;align=center;verticalAlign=middle;whiteSpace=wrap;rounded=0;fontFamily=Helvetica;fontSize=11;fontColor=default;labelBackgroundColor=default;fillColor=none;strokeColor=default;dashed=1;dashPattern=1 1;" vertex="1" parent="fRjFHOvY2SyDoRDMswof-61">
          <mxGeometry x="230" y="150" width="80" height="10" as="geometry" />
        </mxCell>
        <mxCell id="fRjFHOvY2SyDoRDMswof-29" value="V5" style="text;html=1;align=center;verticalAlign=middle;whiteSpace=wrap;rounded=0;fontFamily=Helvetica;fontSize=11;fontColor=default;labelBackgroundColor=default;fillColor=none;strokeColor=default;dashed=1;dashPattern=1 1;" vertex="1" parent="fRjFHOvY2SyDoRDMswof-61">
          <mxGeometry width="70" height="10" as="geometry" />
        </mxCell>
        <mxCell id="fRjFHOvY2SyDoRDMswof-31" value="3V3" style="text;html=1;align=center;verticalAlign=middle;whiteSpace=wrap;rounded=0;fontFamily=Helvetica;fontSize=11;fontColor=default;labelBackgroundColor=default;fillColor=none;strokeColor=default;dashed=1;dashPattern=1 1;" vertex="1" parent="fRjFHOvY2SyDoRDMswof-61">
          <mxGeometry y="50" width="70" height="10" as="geometry" />
        </mxCell>
        <mxCell id="fRjFHOvY2SyDoRDMswof-107" value="BUT | I32" style="text;html=1;align=center;verticalAlign=middle;whiteSpace=wrap;rounded=0;fontFamily=Helvetica;fontSize=11;fontColor=default;labelBackgroundColor=default;fillColor=none;strokeColor=default;dashed=1;textDirection=vertical-rl;horizontal=1;direction=south;dashPattern=1 1;" vertex="1" parent="fRjFHOvY2SyDoRDMswof-117">
          <mxGeometry x="210" y="160" width="10" height="60" as="geometry" />
        </mxCell>
        <mxCell id="fRjFHOvY2SyDoRDMswof-116" value="" style="group" vertex="1" connectable="0" parent="fRjFHOvY2SyDoRDMswof-117">
          <mxGeometry x="75.5" y="160" width="114.5" height="60" as="geometry" />
        </mxCell>
        <mxCell id="fRjFHOvY2SyDoRDMswof-96" value="VSPI" style="text;html=1;align=center;verticalAlign=middle;whiteSpace=wrap;rounded=0;fontFamily=Helvetica;fontSize=11;fontColor=default;labelBackgroundColor=none;fillColor=none;strokeColor=default;dashed=1;direction=south;dashPattern=1 1;" vertex="1" parent="fRjFHOvY2SyDoRDMswof-116">
          <mxGeometry width="114.5" height="10" as="geometry" />
        </mxCell>
        <mxCell id="fRjFHOvY2SyDoRDMswof-112" value="CLK 18" style="text;html=1;align=center;verticalAlign=middle;whiteSpace=wrap;rounded=0;fontFamily=Helvetica;fontSize=11;fontColor=default;labelBackgroundColor=none;fillColor=none;strokeColor=default;dashed=1;textDirection=vertical-rl;horizontal=1;direction=south;dashPattern=1 1;" vertex="1" parent="fRjFHOvY2SyDoRDMswof-116">
          <mxGeometry x="104.5" y="10" width="10" height="50" as="geometry" />
        </mxCell>
        <mxCell id="fRjFHOvY2SyDoRDMswof-113" value="MISO 19" style="text;html=1;align=center;verticalAlign=middle;whiteSpace=wrap;rounded=0;fontFamily=Helvetica;fontSize=11;fontColor=default;labelBackgroundColor=none;fillColor=none;strokeColor=default;dashed=1;textDirection=vertical-rl;horizontal=1;direction=south;dashPattern=1 1;" vertex="1" parent="fRjFHOvY2SyDoRDMswof-116">
          <mxGeometry x="69.5" y="10" width="10" height="50" as="geometry" />
        </mxCell>
        <mxCell id="fRjFHOvY2SyDoRDMswof-114" value="MOSI 23" style="text;html=1;align=center;verticalAlign=middle;whiteSpace=wrap;rounded=0;fontFamily=Helvetica;fontSize=11;fontColor=default;labelBackgroundColor=none;fillColor=none;strokeColor=default;dashed=1;textDirection=vertical-rl;horizontal=1;direction=south;dashPattern=1 1;" vertex="1" parent="fRjFHOvY2SyDoRDMswof-116">
          <mxGeometry x="34.5" y="10" width="10" height="50" as="geometry" />
        </mxCell>
        <mxCell id="fRjFHOvY2SyDoRDMswof-115" value="CS 5" style="text;html=1;align=center;verticalAlign=middle;whiteSpace=wrap;rounded=0;fontFamily=Helvetica;fontSize=11;fontColor=default;labelBackgroundColor=none;fillColor=none;strokeColor=default;dashed=1;textDirection=vertical-rl;horizontal=1;direction=south;dashPattern=1 1;" vertex="1" parent="fRjFHOvY2SyDoRDMswof-116">
          <mxGeometry y="10" width="10" height="50" as="geometry" />
        </mxCell>
        <mxCell id="fRjFHOvY2SyDoRDMswof-121" value="" style="group" vertex="1" connectable="0" parent="1">
          <mxGeometry x="730" y="637.5" width="76" height="50" as="geometry" />
        </mxCell>
        <mxCell id="fRjFHOvY2SyDoRDMswof-118" value="BUT" style="whiteSpace=wrap;html=1;aspect=fixed;fontFamily=Helvetica;fontSize=11;fontColor=default;labelBackgroundColor=default;labelPosition=center;verticalLabelPosition=bottom;align=center;verticalAlign=top;" vertex="1" parent="fRjFHOvY2SyDoRDMswof-121">
          <mxGeometry x="12" width="50" height="50" as="geometry" />
        </mxCell>
        <mxCell id="fRjFHOvY2SyDoRDMswof-119" value="" style="html=1;shape=mxgraph.electrical.electro-mechanical.singleSwitch;aspect=fixed;elSwitchState=off;fontFamily=Helvetica;fontSize=11;fontColor=default;labelBackgroundColor=default;" vertex="1" parent="fRjFHOvY2SyDoRDMswof-121">
          <mxGeometry width="75" height="20" as="geometry" />
        </mxCell>
        <mxCell id="fRjFHOvY2SyDoRDMswof-120" value="" style="verticalLabelPosition=bottom;shadow=0;dashed=0;align=center;html=1;verticalAlign=top;shape=mxgraph.electrical.opto_electronics.led_2;pointerEvents=1;fontFamily=Helvetica;fontSize=11;fontColor=default;labelBackgroundColor=default;" vertex="1" parent="fRjFHOvY2SyDoRDMswof-121">
          <mxGeometry y="25" width="76" height="20" as="geometry" />
        </mxCell>
        <mxCell id="fRjFHOvY2SyDoRDMswof-122" value="" style="pointerEvents=1;verticalLabelPosition=bottom;shadow=0;dashed=0;align=center;html=1;verticalAlign=top;shape=mxgraph.electrical.signal_sources.protective_earth;fontFamily=Helvetica;fontSize=11;fontColor=default;labelBackgroundColor=default;direction=north;" vertex="1" parent="1">
          <mxGeometry x="850" y="661" width="20" height="25" as="geometry" />
        </mxCell>
        <mxCell id="fRjFHOvY2SyDoRDMswof-123" style="edgeStyle=elbowEdgeStyle;shape=connector;rounded=0;jumpStyle=arc;jumpSize=9;orthogonalLoop=1;jettySize=auto;html=1;exitX=1;exitY=0.57;exitDx=0;exitDy=0;exitPerimeter=0;entryX=0.5;entryY=0;entryDx=0;entryDy=0;entryPerimeter=0;strokeColor=default;align=center;verticalAlign=middle;fontFamily=Helvetica;fontSize=11;fontColor=default;labelBackgroundColor=default;startFill=0;endArrow=none;" edge="1" parent="1" source="fRjFHOvY2SyDoRDMswof-120" target="fRjFHOvY2SyDoRDMswof-122">
          <mxGeometry relative="1" as="geometry" />
        </mxCell>
        <mxCell id="fRjFHOvY2SyDoRDMswof-127" value="Rb&lt;font size=&quot;1&quot;&gt;&lt;sub&gt;2&lt;/sub&gt;&lt;/font&gt;" style="pointerEvents=1;verticalLabelPosition=middle;shadow=0;dashed=0;align=center;html=1;verticalAlign=middle;shape=mxgraph.electrical.resistors.resistor_1;fontFamily=Helvetica;fontSize=11;fontColor=default;labelBackgroundColor=default;labelPosition=center;" vertex="1" parent="1">
          <mxGeometry x="670" y="664" width="50" height="20" as="geometry" />
        </mxCell>
        <mxCell id="fRjFHOvY2SyDoRDMswof-128" style="edgeStyle=elbowEdgeStyle;shape=connector;rounded=0;jumpStyle=arc;jumpSize=9;orthogonalLoop=1;jettySize=auto;html=1;exitX=1;exitY=0.5;exitDx=0;exitDy=0;exitPerimeter=0;entryX=0;entryY=0.57;entryDx=0;entryDy=0;entryPerimeter=0;strokeColor=default;align=center;verticalAlign=middle;fontFamily=Helvetica;fontSize=11;fontColor=default;labelBackgroundColor=default;startFill=0;endArrow=none;" edge="1" parent="1" source="fRjFHOvY2SyDoRDMswof-127" target="fRjFHOvY2SyDoRDMswof-120">
          <mxGeometry relative="1" as="geometry" />
        </mxCell>
        <mxCell id="fRjFHOvY2SyDoRDMswof-138" style="edgeStyle=elbowEdgeStyle;shape=connector;rounded=0;jumpStyle=arc;jumpSize=9;orthogonalLoop=1;jettySize=auto;html=1;exitX=0;exitY=0.5;exitDx=0;exitDy=0;exitPerimeter=0;entryX=0.25;entryY=1;entryDx=0;entryDy=0;strokeColor=default;align=center;verticalAlign=middle;fontFamily=Helvetica;fontSize=11;fontColor=default;labelBackgroundColor=default;startFill=0;endArrow=none;" edge="1" parent="1" source="fRjFHOvY2SyDoRDMswof-129" target="fRjFHOvY2SyDoRDMswof-21">
          <mxGeometry relative="1" as="geometry">
            <Array as="points">
              <mxPoint x="590" y="500" />
            </Array>
          </mxGeometry>
        </mxCell>
        <mxCell id="fRjFHOvY2SyDoRDMswof-129" value="" style="verticalLabelPosition=bottom;shadow=0;dashed=0;align=center;html=1;verticalAlign=top;shape=mxgraph.electrical.transistors.npn_transistor_1;fontFamily=Helvetica;fontSize=11;fontColor=default;labelBackgroundColor=default;direction=east;" vertex="1" parent="1">
          <mxGeometry x="600" y="570" width="40" height="70" as="geometry" />
        </mxCell>
        <mxCell id="fRjFHOvY2SyDoRDMswof-131" style="edgeStyle=elbowEdgeStyle;shape=connector;rounded=0;jumpStyle=arc;jumpSize=9;orthogonalLoop=1;jettySize=auto;html=1;exitX=0.5;exitY=1;exitDx=0;exitDy=0;exitPerimeter=0;entryX=0.7;entryY=0;entryDx=0;entryDy=0;entryPerimeter=0;strokeColor=default;align=center;verticalAlign=middle;fontFamily=Helvetica;fontSize=11;fontColor=default;labelBackgroundColor=default;startFill=0;endArrow=none;" edge="1" parent="1" source="fRjFHOvY2SyDoRDMswof-36" target="fRjFHOvY2SyDoRDMswof-129">
          <mxGeometry relative="1" as="geometry">
            <Array as="points">
              <mxPoint x="628" y="580" />
            </Array>
          </mxGeometry>
        </mxCell>
        <mxCell id="fRjFHOvY2SyDoRDMswof-132" style="edgeStyle=elbowEdgeStyle;shape=connector;rounded=0;jumpStyle=arc;jumpSize=9;orthogonalLoop=1;jettySize=auto;html=1;exitX=0.7;exitY=1;exitDx=0;exitDy=0;exitPerimeter=0;entryX=0;entryY=0.5;entryDx=0;entryDy=0;entryPerimeter=0;strokeColor=default;align=center;verticalAlign=middle;fontFamily=Helvetica;fontSize=11;fontColor=default;labelBackgroundColor=default;startFill=0;endArrow=none;" edge="1" parent="1" source="fRjFHOvY2SyDoRDMswof-129" target="fRjFHOvY2SyDoRDMswof-127">
          <mxGeometry relative="1" as="geometry">
            <Array as="points">
              <mxPoint x="650" y="630" />
            </Array>
          </mxGeometry>
        </mxCell>
        <mxCell id="fRjFHOvY2SyDoRDMswof-136" style="edgeStyle=elbowEdgeStyle;shape=connector;rounded=0;jumpStyle=arc;jumpSize=9;orthogonalLoop=1;jettySize=auto;html=1;strokeColor=default;align=center;verticalAlign=middle;fontFamily=Helvetica;fontSize=11;fontColor=default;labelBackgroundColor=default;startFill=0;endArrow=oval;endFill=1;exitX=1;exitY=0.8;exitDx=0;exitDy=0;" edge="1" parent="1" source="fRjFHOvY2SyDoRDMswof-119">
          <mxGeometry relative="1" as="geometry">
            <mxPoint x="280" y="786.5" as="targetPoint" />
            <mxPoint x="830" y="650" as="sourcePoint" />
            <Array as="points">
              <mxPoint x="820" y="767" />
            </Array>
          </mxGeometry>
        </mxCell>
        <mxCell id="fRjFHOvY2SyDoRDMswof-137" style="edgeStyle=elbowEdgeStyle;shape=connector;rounded=0;jumpStyle=arc;jumpSize=9;orthogonalLoop=1;jettySize=auto;html=1;exitX=0;exitY=0.8;exitDx=0;exitDy=0;strokeColor=default;align=center;verticalAlign=middle;fontFamily=Helvetica;fontSize=11;fontColor=default;labelBackgroundColor=default;startFill=0;endArrow=none;entryX=1;entryY=0.5;entryDx=0;entryDy=0;" edge="1" parent="1" source="fRjFHOvY2SyDoRDMswof-119" target="fRjFHOvY2SyDoRDMswof-107">
          <mxGeometry relative="1" as="geometry">
            <mxPoint x="560" y="474" as="targetPoint" />
            <Array as="points">
              <mxPoint x="555" y="554" />
            </Array>
          </mxGeometry>
        </mxCell>
        <mxCell id="fRjFHOvY2SyDoRDMswof-81" style="edgeStyle=elbowEdgeStyle;shape=connector;rounded=0;jumpStyle=arc;jumpSize=9;orthogonalLoop=1;jettySize=auto;html=1;entryX=1;entryY=0.57;entryDx=0;entryDy=0;entryPerimeter=0;strokeColor=default;align=center;verticalAlign=middle;fontFamily=Helvetica;fontSize=11;fontColor=default;labelBackgroundColor=default;startFill=0;endArrow=none;" edge="1" parent="1" source="fRjFHOvY2SyDoRDMswof-80" target="fRjFHOvY2SyDoRDMswof-79">
          <mxGeometry relative="1" as="geometry" />
        </mxCell>
        <mxCell id="fRjFHOvY2SyDoRDMswof-146" style="edgeStyle=elbowEdgeStyle;shape=connector;rounded=0;jumpStyle=arc;jumpSize=9;orthogonalLoop=1;jettySize=auto;html=1;exitX=0;exitY=0.5;exitDx=0;exitDy=0;exitPerimeter=0;strokeColor=default;align=center;verticalAlign=middle;fontFamily=Helvetica;fontSize=11;fontColor=default;labelBackgroundColor=default;startFill=0;endArrow=oval;endFill=1;" edge="1" parent="1" source="fRjFHOvY2SyDoRDMswof-140">
          <mxGeometry relative="1" as="geometry">
            <mxPoint x="690" y="608" as="targetPoint" />
            <Array as="points">
              <mxPoint x="690" y="550" />
            </Array>
          </mxGeometry>
        </mxCell>
        <mxCell id="fRjFHOvY2SyDoRDMswof-140" value="Rb&lt;font size=&quot;1&quot;&gt;&lt;sub&gt;1&lt;/sub&gt;&lt;/font&gt;" style="pointerEvents=1;verticalLabelPosition=middle;shadow=0;dashed=0;align=center;html=1;verticalAlign=middle;shape=mxgraph.electrical.resistors.resistor_1;fontFamily=Helvetica;fontSize=11;fontColor=default;labelBackgroundColor=default;labelPosition=center;" vertex="1" parent="1">
          <mxGeometry x="730" y="497.5" width="50" height="20" as="geometry" />
        </mxCell>
        <mxCell id="fRjFHOvY2SyDoRDMswof-143" style="edgeStyle=elbowEdgeStyle;shape=connector;rounded=0;jumpStyle=arc;jumpSize=9;orthogonalLoop=1;jettySize=auto;html=1;exitX=0;exitY=0.5;exitDx=0;exitDy=0;exitPerimeter=0;strokeColor=default;align=center;verticalAlign=middle;fontFamily=Helvetica;fontSize=11;fontColor=default;labelBackgroundColor=default;startFill=0;endArrow=oval;endFill=1;" edge="1" parent="1" source="fRjFHOvY2SyDoRDMswof-141">
          <mxGeometry relative="1" as="geometry">
            <mxPoint x="650" y="627" as="targetPoint" />
          </mxGeometry>
        </mxCell>
        <mxCell id="fRjFHOvY2SyDoRDMswof-141" value="Rb&lt;span style=&quot;font-size: 8.33333px;&quot;&gt;&lt;sub&gt;1&lt;/sub&gt;&lt;/span&gt;" style="pointerEvents=1;verticalLabelPosition=middle;shadow=0;dashed=0;align=center;html=1;verticalAlign=middle;shape=mxgraph.electrical.resistors.resistor_1;fontFamily=Helvetica;fontSize=11;fontColor=default;labelBackgroundColor=default;labelPosition=center;" vertex="1" parent="1">
          <mxGeometry x="730" y="597.5" width="50" height="20" as="geometry" />
        </mxCell>
        <mxCell id="fRjFHOvY2SyDoRDMswof-142" style="edgeStyle=elbowEdgeStyle;shape=connector;rounded=0;jumpStyle=arc;jumpSize=9;orthogonalLoop=1;jettySize=auto;html=1;exitX=0;exitY=0.57;exitDx=0;exitDy=0;exitPerimeter=0;entryX=1;entryY=0.5;entryDx=0;entryDy=0;entryPerimeter=0;strokeColor=default;align=center;verticalAlign=middle;fontFamily=Helvetica;fontSize=11;fontColor=default;labelBackgroundColor=default;startFill=0;endArrow=none;" edge="1" parent="1" source="fRjFHOvY2SyDoRDMswof-87" target="fRjFHOvY2SyDoRDMswof-141">
          <mxGeometry relative="1" as="geometry" />
        </mxCell>
        <mxCell id="fRjFHOvY2SyDoRDMswof-145" style="edgeStyle=elbowEdgeStyle;shape=connector;rounded=0;jumpStyle=arc;jumpSize=9;orthogonalLoop=1;jettySize=auto;html=1;exitX=0;exitY=0.57;exitDx=0;exitDy=0;exitPerimeter=0;entryX=1;entryY=0.5;entryDx=0;entryDy=0;entryPerimeter=0;strokeColor=default;align=center;verticalAlign=middle;fontFamily=Helvetica;fontSize=11;fontColor=default;labelBackgroundColor=default;startFill=0;endArrow=none;" edge="1" parent="1" source="fRjFHOvY2SyDoRDMswof-79" target="fRjFHOvY2SyDoRDMswof-140">
          <mxGeometry relative="1" as="geometry" />
        </mxCell>
        <mxCell id="fRjFHOvY2SyDoRDMswof-147" value="When BUT is pressed, it makes LIGHT emit HIGH for 10 sec and sets PM10 and PM25 to reflect the most recent measurements of PM&amp;nbsp;" style="text;html=1;align=center;verticalAlign=middle;whiteSpace=wrap;rounded=0;fontFamily=Helvetica;fontSize=11;fontColor=default;labelBackgroundColor=default;" vertex="1" parent="1">
          <mxGeometry x="880" y="626.5" width="180" height="95" as="geometry" />
        </mxCell>
        <mxCell id="fRjFHOvY2SyDoRDMswof-148" value="ENS160" style="rounded=0;whiteSpace=wrap;html=1;fontFamily=Helvetica;fontSize=11;fontColor=default;labelBackgroundColor=default;" vertex="1" parent="1">
          <mxGeometry x="450" y="510" width="70" height="30" as="geometry" />
        </mxCell>
        <mxCell id="fRjFHOvY2SyDoRDMswof-149" value="CS" style="text;html=1;align=center;verticalAlign=middle;whiteSpace=wrap;rounded=0;fontFamily=Helvetica;fontSize=11;fontColor=default;labelBackgroundColor=none;fillColor=none;strokeColor=default;dashed=1;textDirection=vertical-rl;horizontal=1;direction=south;dashPattern=1 1;" vertex="1" parent="1">
          <mxGeometry x="450" y="480" width="10" height="30" as="geometry" />
        </mxCell>
        <mxCell id="fRjFHOvY2SyDoRDMswof-150" value="SDI" style="text;html=1;align=center;verticalAlign=middle;whiteSpace=wrap;rounded=0;fontFamily=Helvetica;fontSize=11;fontColor=default;labelBackgroundColor=none;fillColor=none;strokeColor=default;dashed=1;textDirection=vertical-rl;horizontal=1;direction=south;dashPattern=1 1;" vertex="1" parent="1">
          <mxGeometry x="470" y="480" width="10" height="30" as="geometry" />
        </mxCell>
        <mxCell id="fRjFHOvY2SyDoRDMswof-151" value="SDO" style="text;html=1;align=center;verticalAlign=middle;whiteSpace=wrap;rounded=0;fontFamily=Helvetica;fontSize=11;fontColor=default;labelBackgroundColor=none;fillColor=none;strokeColor=default;dashed=1;textDirection=vertical-rl;horizontal=1;direction=south;dashPattern=1 1;" vertex="1" parent="1">
          <mxGeometry x="490" y="480" width="10" height="30" as="geometry" />
        </mxCell>
        <mxCell id="fRjFHOvY2SyDoRDMswof-152" value="SCK" style="text;html=1;align=center;verticalAlign=middle;whiteSpace=wrap;rounded=0;fontFamily=Helvetica;fontSize=11;fontColor=default;labelBackgroundColor=none;fillColor=none;strokeColor=default;dashed=1;textDirection=vertical-rl;horizontal=1;direction=south;dashPattern=1 1;" vertex="1" parent="1">
          <mxGeometry x="510" y="480" width="10" height="30" as="geometry" />
        </mxCell>
        <mxCell id="fRjFHOvY2SyDoRDMswof-153" value="3V3" style="text;html=1;align=center;verticalAlign=middle;whiteSpace=wrap;rounded=0;fontFamily=Helvetica;fontSize=11;fontColor=default;labelBackgroundColor=none;fillColor=none;strokeColor=default;dashed=1;textDirection=vertical-rl;horizontal=1;direction=south;dashPattern=1 1;" vertex="1" parent="1">
          <mxGeometry x="440" y="510" width="10" height="30" as="geometry" />
        </mxCell>
        <mxCell id="fRjFHOvY2SyDoRDMswof-154" value="GND" style="text;html=1;align=center;verticalAlign=middle;whiteSpace=wrap;rounded=0;fontFamily=Helvetica;fontSize=11;fontColor=default;labelBackgroundColor=none;fillColor=none;strokeColor=default;dashed=1;textDirection=vertical-rl;horizontal=1;direction=south;dashPattern=1 1;" vertex="1" parent="1">
          <mxGeometry x="520" y="510" width="10" height="30" as="geometry" />
        </mxCell>
        <mxCell id="fRjFHOvY2SyDoRDMswof-155" value="" style="pointerEvents=1;verticalLabelPosition=bottom;shadow=0;dashed=0;align=center;html=1;verticalAlign=top;shape=mxgraph.electrical.signal_sources.protective_earth;fontFamily=Helvetica;fontSize=11;fontColor=default;labelBackgroundColor=default;direction=north;" vertex="1" parent="1">
          <mxGeometry x="610" y="512.5" width="20" height="25" as="geometry" />
        </mxCell>
        <mxCell id="fRjFHOvY2SyDoRDMswof-156" style="edgeStyle=elbowEdgeStyle;shape=connector;rounded=0;jumpStyle=arc;jumpSize=9;orthogonalLoop=1;jettySize=auto;html=1;exitX=0.5;exitY=0;exitDx=0;exitDy=0;entryX=0.5;entryY=0;entryDx=0;entryDy=0;entryPerimeter=0;strokeColor=default;align=center;verticalAlign=middle;fontFamily=Helvetica;fontSize=11;fontColor=default;labelBackgroundColor=default;startFill=0;endArrow=none;" edge="1" parent="1" source="fRjFHOvY2SyDoRDMswof-154" target="fRjFHOvY2SyDoRDMswof-155">
          <mxGeometry relative="1" as="geometry" />
        </mxCell>
      </root>
    </mxGraphModel>
  </diagram>
</mxfile>
